<?xml version="1.0" encoding="iso-8859-1"?>
<!-- Uploaded to: SVG Repo, www.svgrepo.com, Generator: SVG Repo Mixer Tools -->
<!DOCTYPE svg PUBLIC "-//W3C//DTD SVG 1.1//EN" "http://www.w3.org/Graphics/SVG/1.1/DTD/svg11.dtd">
<svg fill="#000000" height="800px" width="800px" version="1.1" id="Capa_1" xmlns="http://www.w3.org/2000/svg" xmlns:xlink="http://www.w3.org/1999/xlink" 
	 viewBox="0 0 342.682 342.682" xml:space="preserve">
<path d="M180.272,0l-6.594,32.656c2.667,5.921,6.662,16.883,6.662,29.435c0,18.836-9,34.105-9,34.105s-9-15.27-9-34.105
	c0-12.552,3.995-23.514,6.662-29.435L162.409,0h-33.326L92.459,342.682c41.114,0,46.382-165.841,78.882-165.841
	s37.768,165.841,78.882,165.841L213.599,0H180.272z M171.341,157.924c-10.861,0-19.666-8.805-19.666-19.667
	c0-10.862,8.805-19.667,19.666-19.667s19.666,8.805,19.666,19.667C191.007,149.119,182.202,157.924,171.341,157.924z"/>
</svg>